# xmcd
#
# Track frame offsets: 
#        150
#        11899
#        21703
#        33831
#        51813
#        74822
#        99566
#        125200
#        146214
#        164770
#        191280
#        212839
#        229456
#        249079
#        259326
#        272335
#        282834
#
# Disc length: 4003 seconds
#
# Revision: 0
# Processed by: cddbd v1.5.2PL0 Copyright (c) Steve Scherf et al.
# Submitted via: ExactAudioCopy v0.95b4
#
DISCID=0e0fa111
DTITLE=Ray Charles - The Way I Feel 4 [Lonely Avenue]
DYEAR=2007
DGENRE=Blues
TTITLE0=Lonely Avenue
TTITLE1=I Want To Know
TTITLE2=Leave My Woman Alone
TTITLE3=The Ray
TTITLE4=I Surrender Dear
TTITLE5=Hornful Soul
TTITLE6=Ain't Misbehavin'
TTITLE7=Joy Ride
TTITLE8=Sweet Sixteen Bars
TTITLE9=Doodlin', Pts 1 and 2
TTITLE10=There's No You
TTITLE11=Undecided
TTITLE12=My Melancholy Baby
TTITLE13=It's All Right
TTITLE14=Ain't That Love?
TTITLE15=Get On The Right Track, Baby
TTITLE16=Rockhouse, Pts 1 and 2
EXTD=
EXTT0=
EXTT1=
EXTT2=
EXTT3=
EXTT4=
EXTT5=
EXTT6=
EXTT7=
EXTT8=
EXTT9=
EXTT10=
EXTT11=
EXTT12=
EXTT13=
EXTT14=
EXTT15=
EXTT16=
PLAYORDER=
